<svg
     width="182" height="100" viewBox="0 0 182 100" fill="none" xmlns="http://www.w3.org/2000/svg">
        <path d="M10.9773 62.0682V77H2.64205V42.0909H10.7045V55.625H10.9943C11.5852 54.0114 12.5511 52.75 13.892 51.8409C15.2443 50.9318 16.8977 50.4773 18.8523 50.4773C20.6932 50.4773 22.2955 50.8864 23.6591 51.7045C25.0227 52.5114 26.0795 53.6534 26.8295 55.1307C27.5909 56.608 27.9659 58.3352 27.9545 60.3125V77H19.6193V61.9489C19.6307 60.4943 19.267 59.358 18.5284 58.5398C17.7898 57.7216 16.75 57.3125 15.4091 57.3125C14.5341 57.3125 13.7614 57.5057 13.0909 57.892C12.4318 58.267 11.9148 58.8068 11.5398 59.5114C11.1761 60.2159 10.9886 61.0682 10.9773 62.0682ZM40.5384 77.4432C38.8679 77.4432 37.3849 77.1648 36.0895 76.608C34.8054 76.0398 33.7884 75.1875 33.0384 74.0511C32.2997 72.9034 31.9304 71.4659 31.9304 69.7386C31.9304 68.2841 32.1861 67.0568 32.6974 66.0568C33.2088 65.0568 33.9134 64.2443 34.8111 63.6193C35.7088 62.9943 36.7429 62.5227 37.9134 62.2045C39.0838 61.875 40.3338 61.6534 41.6634 61.5398C43.152 61.4034 44.3509 61.2614 45.2599 61.1136C46.169 60.9545 46.8281 60.733 47.2372 60.4489C47.6577 60.1534 47.8679 59.7386 47.8679 59.2045V59.1193C47.8679 58.2443 47.5668 57.5682 46.9645 57.0909C46.3622 56.6136 45.5497 56.375 44.527 56.375C43.4247 56.375 42.5384 56.6136 41.8679 57.0909C41.1974 57.5682 40.7713 58.2273 40.5895 59.0682L32.902 58.7955C33.1293 57.2045 33.7145 55.7841 34.6577 54.5341C35.6122 53.2727 36.919 52.2841 38.5781 51.5682C40.2486 50.8409 42.2543 50.4773 44.5952 50.4773C46.2656 50.4773 47.8054 50.6761 49.2145 51.0739C50.6236 51.4602 51.8509 52.0284 52.8963 52.7784C53.9418 53.517 54.7486 54.4261 55.3168 55.5057C55.8963 56.5852 56.1861 57.8182 56.1861 59.2045V77H48.3452V73.3523H48.1406C47.6747 74.2386 47.0781 74.9886 46.3509 75.6023C45.6349 76.2159 44.7884 76.6761 43.8111 76.983C42.8452 77.2898 41.7543 77.4432 40.5384 77.4432ZM43.1122 71.9886C44.0099 71.9886 44.8168 71.8068 45.5327 71.4432C46.2599 71.0795 46.8395 70.5795 47.2713 69.9432C47.7031 69.2955 47.919 68.5455 47.919 67.6932V65.2045C47.6804 65.3295 47.3906 65.4432 47.0497 65.5455C46.7202 65.6477 46.3565 65.7443 45.9588 65.8352C45.5611 65.9261 45.152 66.0057 44.7315 66.0739C44.3111 66.142 43.9077 66.2045 43.5213 66.2614C42.7372 66.3864 42.0668 66.5795 41.5099 66.8409C40.9645 67.1023 40.544 67.4432 40.2486 67.8636C39.9645 68.2727 39.8224 68.7614 39.8224 69.3295C39.8224 70.1932 40.1293 70.8523 40.7429 71.3068C41.3679 71.7614 42.1577 71.9886 43.1122 71.9886ZM61.2827 77V42.0909H69.6179V55.3011H69.7884C70.1293 54.5057 70.6122 53.7386 71.2372 53C71.8736 52.2614 72.6804 51.6591 73.6577 51.1932C74.6463 50.7159 75.8281 50.4773 77.2031 50.4773C79.0213 50.4773 80.7202 50.9545 82.2997 51.9091C83.8906 52.8636 85.1747 54.3352 86.152 56.3239C87.1293 58.3125 87.6179 60.8466 87.6179 63.9261C87.6179 66.892 87.1463 69.375 86.2031 71.375C85.2713 73.375 84.0099 74.875 82.419 75.875C80.8395 76.875 79.0838 77.375 77.152 77.375C75.8338 77.375 74.6918 77.1591 73.7259 76.7273C72.7599 76.2955 71.9474 75.7273 71.2884 75.0227C70.6406 74.3182 70.1406 73.5625 69.7884 72.7557H69.5327V77H61.2827ZM69.4474 63.9091C69.4474 65.3182 69.6349 66.5455 70.0099 67.5909C70.3963 68.6364 70.9474 69.4489 71.6634 70.0284C72.3906 70.5966 73.2599 70.8807 74.2713 70.8807C75.294 70.8807 76.1634 70.5966 76.8793 70.0284C77.5952 69.4489 78.1349 68.6364 78.4986 67.5909C78.8736 66.5455 79.0611 65.3182 79.0611 63.9091C79.0611 62.5 78.8736 61.2784 78.4986 60.2443C78.1349 59.2102 77.5952 58.4091 76.8793 57.8409C76.1747 57.2727 75.3054 56.9886 74.2713 56.9886C73.2486 56.9886 72.3793 57.267 71.6634 57.8239C70.9474 58.3807 70.3963 59.1761 70.0099 60.2102C69.6349 61.2443 69.4474 62.4773 69.4474 63.9091ZM91.9858 77V50.8182H100.321V77H91.9858ZM96.1619 47.767C94.9915 47.767 93.9858 47.3807 93.1449 46.608C92.304 45.8239 91.8835 44.8807 91.8835 43.7784C91.8835 42.6875 92.304 41.7557 93.1449 40.983C93.9858 40.1989 94.9915 39.8068 96.1619 39.8068C97.3438 39.8068 98.3494 40.1989 99.179 40.983C100.02 41.7557 100.44 42.6875 100.44 43.7784C100.44 44.8807 100.02 45.8239 99.179 46.608C98.3494 47.3807 97.3438 47.767 96.1619 47.767ZM120.405 50.8182V56.9545H103.888V50.8182H120.405ZM107.348 44.5455H115.683V68.767C115.683 69.2784 115.763 69.6932 115.922 70.0114C116.092 70.3182 116.337 70.5398 116.655 70.6761C116.973 70.8011 117.354 70.8636 117.797 70.8636C118.115 70.8636 118.45 70.8352 118.803 70.7784C119.166 70.7102 119.439 70.6534 119.621 70.608L120.882 76.625C120.484 76.7386 119.922 76.8807 119.195 77.0511C118.479 77.2216 117.621 77.3295 116.621 77.375C114.666 77.4659 112.99 77.2386 111.592 76.6932C110.206 76.1364 109.143 75.2727 108.405 74.1023C107.678 72.9318 107.325 71.4602 107.348 69.6875V44.5455ZM147.188 58.8125L139.534 59.017C139.455 58.4716 139.239 57.9886 138.886 57.5682C138.534 57.1364 138.074 56.8011 137.506 56.5625C136.949 56.3125 136.301 56.1875 135.562 56.1875C134.597 56.1875 133.773 56.3807 133.091 56.767C132.42 57.1534 132.091 57.6761 132.102 58.3352C132.091 58.8466 132.295 59.2898 132.716 59.6648C133.148 60.0398 133.915 60.3409 135.017 60.5682L140.062 61.5227C142.676 62.0227 144.619 62.8523 145.892 64.0114C147.176 65.1705 147.824 66.7045 147.835 68.6136C147.824 70.4091 147.29 71.9716 146.233 73.3011C145.188 74.6307 143.756 75.6648 141.938 76.4034C140.119 77.1307 138.04 77.4943 135.699 77.4943C131.96 77.4943 129.011 76.7273 126.852 75.1932C124.705 73.6477 123.477 71.5795 123.17 68.9886L131.403 68.7841C131.585 69.7386 132.057 70.4659 132.818 70.9659C133.58 71.4659 134.551 71.7159 135.733 71.7159C136.801 71.7159 137.67 71.517 138.341 71.1193C139.011 70.7216 139.352 70.1932 139.364 69.5341C139.352 68.9432 139.091 68.4716 138.58 68.1193C138.068 67.7557 137.267 67.4716 136.176 67.267L131.608 66.3977C128.983 65.9205 127.028 65.0398 125.744 63.7557C124.46 62.4602 123.824 60.8125 123.835 58.8125C123.824 57.0625 124.29 55.5682 125.233 54.3295C126.176 53.0795 127.517 52.125 129.256 51.4659C130.994 50.8068 133.045 50.4773 135.409 50.4773C138.955 50.4773 141.75 51.2216 143.795 52.7102C145.841 54.1875 146.972 56.2216 147.188 58.8125Z" fill="white"/>
        <rect x="7.5" y="9.5" width="15" height="15" rx="3.5" fill="#18181B" stroke="#27272A"/>
        <rect x="27.5" y="9.5" width="15" height="15" rx="3.5" fill="#4C1D95" stroke="#6D28D9"/>
        <rect x="47.5" y="9.5" width="15" height="15" rx="3.5" fill="#5B21B6" stroke="#7C3AED"/>
        <rect x="67.5" y="9.5" width="15" height="15" rx="3.5" fill="#6D28D9" stroke="#8B5CF6"/>
        <rect x="87.5" y="9.5" width="15" height="15" rx="3.5" fill="#7C3AED" stroke="#A78BFA"/>
        <rect x="107.5" y="9.5" width="15" height="15" rx="3.5" fill="#8B5CF6" stroke="#C4B5FD"/>
    </svg>